<?xml version="1.0" encoding="UTF-8" standalone="no"?>
<!-- Created with Inkscape (http://www.inkscape.org/) -->

<svg
   width="189.79427mm"
   height="46.009422mm"
   viewBox="0 0 189.79427 46.009422"
   version="1.1"
   id="svg5"
   xml:space="preserve"
   sodipodi:docname="place.svg"
   inkscape:version="1.2.2 (732a01da63, 2022-12-09)"
   xmlns:inkscape="http://www.inkscape.org/namespaces/inkscape"
   xmlns:sodipodi="http://sodipodi.sourceforge.net/DTD/sodipodi-0.dtd"
   xmlns="http://www.w3.org/2000/svg"
   xmlns:svg="http://www.w3.org/2000/svg"><sodipodi:namedview
     id="namedview7"
     pagecolor="#ffffff"
     bordercolor="#000000"
     borderopacity="0.25"
     inkscape:showpageshadow="2"
     inkscape:pageopacity="0.0"
     inkscape:pagecheckerboard="0"
     inkscape:deskcolor="#d1d1d1"
     inkscape:document-units="mm"
     showgrid="false"
     inkscape:zoom="7.1410774"
     inkscape:cx="253.46315"
     inkscape:cy="133.31322"
     inkscape:window-width="2560"
     inkscape:window-height="1369"
     inkscape:window-x="1912"
     inkscape:window-y="-8"
     inkscape:window-maximized="1"
     inkscape:current-layer="layer1" /><defs
     id="defs2"><rect
       x="182.43355"
       y="388.90872"
       width="161.92744"
       height="89.449005"
       id="rect300" /></defs><g
     inkscape:label="Ebene 1"
     inkscape:groupmode="layer"
     id="layer1"
     transform="translate(-11.112645,-117.86798)"><g
       aria-label="our/place"
       transform="matrix(3.1632091,0,0,3.2099054,-565.96132,-1139.1573)"
       id="text298"
       style="font-family:Minecraft;-inkscape-font-specification:Minecraft;white-space:pre;shape-inside:url(#rect300);display:inline;fill:#ffffff"><path
         d="m 183.63359,395.2082 h 3.6 v -1.2 h -3.6 z m 0,3.6 v -3.6 h -1.2 v 3.6 z m 3.6,-3.6 v 3.6 h 1.2 v -3.6 z m 0,3.6 h -3.6 v 1.2 h 3.6 z"
         style="display:inline"
         id="path1544" /><path
         d="m 190.8336,398.8082 v -4.8 h -1.2 v 4.8 z m 3.6,-4.8 v 4.8 h -3.6 v 1.2 h 4.8 v -6 z"
         style="display:inline"
         id="path1546" /><path
         d="m 198.0336,394.0082 h -1.2 v 6 h 1.2 v -3.6 h 1.2 v -1.2 h -1.2 z m 3.6,0 h -2.4 v 1.2 h 2.4 z m 0,1.2 v 1.2 h 1.2 v -1.2 z"
         style="display:inline"
         id="path1548" /><path
         d="m 208.83361,391.6082 v 1.2 h 1.2 v -1.2 z m -1.2,1.2 v 2.4 h 1.2 v -2.4 z m -1.2,3.6 h 1.2 v -1.2 h -1.2 z m -1.2,0 v 2.4 h 1.2 v -2.4 z m -1.2,3.6 h 1.2 v -1.2 h -1.2 z"
         style="display:inline"
         id="path1550" /><path
         d="m 216.03361,397.6082 h -3.6 v -1.2 h 1.2 v -1.2 h -1.2 v -1.2 h -1.2 v 7.2 h 1.2 v -2.4 h 3.6 z m 0,-2.4 v -1.2 h -2.4 v 1.2 z m 0,0 v 2.4 h 1.2 v -2.4 z"
         style="display:inline"
         id="path1552" /><path
         d="m 219.63362,398.8082 v -7.2 h -1.2 v 7.2 z m 0,0 v 1.2 h 1.2 v -1.2 z"
         style="display:inline"
         id="path1554" /><path
         d="m 226.83361,394.0082 h -3.6 v 1.2 h 3.6 z m 0,1.2 v 1.2 h -3.6 v 1.2 h 3.6 v 1.2 h -3.6 v 1.2 h 4.8 v -4.8 z m -4.8,2.4 v 1.2 h 1.2 v -1.2 z"
         style="display:inline"
         id="path1556" /><path
         d="m 234.03361,394.0082 h -3.6 v 1.2 h 3.6 z m -4.8,1.2 v 3.6 h 1.2 v -3.6 z m 6,1.2 v -1.2 h -1.2 v 1.2 z m 0,1.2 h -1.2 v 1.2 h 1.2 z m -4.8,2.4 h 3.6 v -1.2 h -3.6 z"
         style="display:inline"
         id="path1558" /><path
         d="m 237.63362,395.2082 h 3.6 v -1.2 h -3.6 z m 3.6,0 v 1.2 h -3.6 v -1.2 h -1.2 v 3.6 h 1.2 v -1.2 h 4.8 v -2.4 z m -3.6,4.8 h 4.8 v -1.2 h -4.8 z"
         style="display:inline"
         id="path1560" /></g><g
       aria-label="by The Ancients"
       transform="matrix(1.160912,0,0,1.0636559,-1.2359536,-15.766958)"
       id="text358"
       style="font-size:13.5621px;font-family:Minecraft;-inkscape-font-specification:Minecraft;fill:#e6e6e6;stroke-width:0.508577"><path
         d="m 16.061821,166.18088 h -4.06863 v -2.71242 h 1.35621 v -1.35621 h -1.35621 v -4.06863 h -1.35621 v 9.49347 h 5.42484 z m 0,-4.06863 v -1.35621 h -2.71242 v 1.35621 z m 0,0 v 4.06863 h 1.35621 v -4.06863 z"
         id="path1517"
         style="fill:#e6e6e6" /><path
         d="m 20.130456,164.82467 v -4.06863 h -1.35621 v 4.06863 z m 4.06863,-4.06863 v 4.06863 h -4.06863 v 1.35621 h 4.06863 v 1.35621 h 1.35621 v -6.78105 z m 0,6.78105 h -5.42484 v 1.35621 h 5.42484 z"
         id="path1519"
         style="fill:#e6e6e6" /><path
         d="m 39.117397,158.04362 h -6.78105 v 1.35621 h 2.71242 v 8.13726 h 1.35621 v -8.13726 h 2.71242 z"
         id="path1521"
         style="fill:#e6e6e6" /><path
         d="m 41.829823,162.11225 v -4.06863 h -1.35621 v 9.49347 h 1.35621 v -4.06863 h 1.35621 v -1.35621 z m 4.06863,-1.35621 h -2.71242 v 1.35621 h 2.71242 z m 0,1.35621 v 5.42484 h 1.35621 v -5.42484 z"
         id="path1523"
         style="fill:#e6e6e6" /><path
         d="m 49.967087,162.11225 h 4.06863 v -1.35621 h -4.06863 z m 4.06863,0 v 1.35621 h -4.06863 v -1.35621 h -1.35621 v 4.06863 h 1.35621 v -1.35621 h 5.42484 v -2.71242 z m -4.06863,5.42484 h 5.42484 v -1.35621 h -5.42484 z"
         id="path1525"
         style="fill:#e6e6e6" /><path
         d="m 63.529187,159.39983 h 4.06863 v -1.35621 h -4.06863 z m 4.06863,0 v 1.35621 h -4.06863 v -1.35621 h -1.356211 v 8.13726 h 1.356211 v -5.42484 h 4.06863 v 5.42484 h 1.35621 v -8.13726 z"
         id="path1527"
         style="fill:#e6e6e6" /><path
         d="m 75.735085,160.75604 h -5.42484 v 6.78105 h 1.35621 v -5.42484 h 4.06863 z m 0,1.35621 v 5.42484 h 1.35621 v -5.42484 z"
         id="path1529"
         style="fill:#e6e6e6" /><path
         d="m 83.872345,160.75604 h -4.06863 v 1.35621 h 4.06863 z m -5.42484,1.35621 v 4.06863 h 1.35621 v -4.06863 z m 6.78105,1.35621 v -1.35621 h -1.35621 v 1.35621 z m 0,1.35621 h -1.35621 v 1.35621 h 1.35621 z m -5.42484,2.71242 h 4.06863 v -1.35621 h -4.06863 z"
         id="path1531"
         style="fill:#e6e6e6" /><path
         d="m 86.584773,158.04362 v 1.35621 h 1.35621 v -1.35621 z m 0,2.71242 v 6.78105 h 1.35621 v -6.78105 z"
         id="path1533"
         style="fill:#e6e6e6" /><path
         d="m 90.653416,162.11225 h 4.06863 v -1.35621 h -4.06863 z m 4.06863,0 v 1.35621 h -4.06863 v -1.35621 h -1.35621 v 4.06863 h 1.35621 v -1.35621 h 5.42484 v -2.71242 z m -4.06863,5.42484 h 5.42484 v -1.35621 h -5.42484 z"
         id="path1535"
         style="fill:#e6e6e6" /><path
         d="m 102.85931,160.75604 h -5.424844 v 6.78105 h 1.35621 v -5.42484 h 4.068634 z m 0,1.35621 v 5.42484 h 1.35621 v -5.42484 z"
         id="path1537"
         style="fill:#e6e6e6" /><path
         d="m 108.28415,166.18088 v -4.06863 h 1.35621 v -1.35621 h -1.35621 v -2.71242 h -1.35621 v 2.71242 h -1.35621 v 1.35621 h 1.35621 v 4.06863 z m 1.35621,1.35621 v -1.35621 h -1.35621 v 1.35621 z"
         id="path1539"
         style="fill:#e6e6e6" /><path
         d="m 112.35278,162.11225 h 5.42484 v -1.35621 h -5.42484 z m -1.35621,0 v 1.35621 h 1.35621 v -1.35621 z m 1.35621,2.71242 h 4.06863 v -1.35621 h -4.06863 z m 5.42484,1.35621 v -1.35621 h -1.35621 v 1.35621 z m -1.35621,0 h -5.42484 v 1.35621 h 5.42484 z"
         id="path1541"
         style="fill:#e6e6e6" /></g></g></svg>
